ply
format ascii 1.0
comment Created by CloudCompare v2.10.1 (Zephyrus)
comment Created 15.02.2020. 00:10
obj_info Generated by CloudCompare!
element vertex 20
property float x
property float y
property float z
element face 36
property list uchar int vertex_indices
end_header
4100 -300 0 
8100 -4550 50 
8100 -8800 0 
8100 -8800 50 
7850 -4800 50 
7850 -8800 50 
3850 -550 50 
100 -550 50 
3850 -550 0 
100 -300 50 
4100 -300 50 
4100 -4550 50 
3850 -4800 50 
100 -550 0 
100 -300 0 
8100 -4550 0 
7850 -4800 0 
4100 -4550 0 
3850 -4800 0 
7850 -8800 0 
3 0 14 10 
3 10 14 9 
3 17 0 11 
3 11 0 10 
3 15 17 1 
3 1 17 11 
3 2 15 3 
3 3 15 1 
3 19 2 5 
3 5 2 3 
3 16 19 4 
3 4 19 5 
3 18 16 12 
3 12 16 4 
3 8 18 6 
3 6 18 12 
3 13 8 7 
3 7 8 6 
3 14 13 9 
3 9 13 7 
3 7 6 9 
3 9 6 10 
3 10 6 11 
3 11 6 12 
3 11 12 4 
3 5 3 4 
3 4 3 1 
3 4 1 11 
3 13 14 8 
3 8 14 0 
3 8 0 17 
3 15 16 17 
3 17 16 18 
3 17 18 8 
3 15 2 16 
3 16 2 19 
